<?xml version="1.0" encoding="UTF-8"?>
<svg id="_图层_1" data-name="图层_1" xmlns="http://www.w3.org/2000/svg" version="1.1" viewBox="0 0 1280 1280">
  <!-- Generator: Adobe Illustrator 30.0.0, SVG Export Plug-In . SVG Version: 2.1.1 Build 123)  -->
  <defs>
    <style>
      .st0 {
        fill: #fff;
      }
    </style>
  </defs>
  <circle class="st0" cx="640" cy="640" r="630"/>
  <path d="M706.8,1152.2h-28.8c-49.6-3.5-97.7-20.2-137.8-49.7-14.4-10.6-27-23-39.5-35.7-8,1-15.9,2.9-23.9,3.8-171.6,19.6-314.2-131.3-284.7-301.5,2.1-12,5.4-23.9,9.1-35.5-29.1-33.1-50.2-72.5-60-115.7-31.8-141.6,58-281.5,199.2-311.1,27.2-86.7,101.6-153.2,190.3-172.3,91.6-19.7,185.5,10.4,247.8,79.6,110.1-23.2,222.2,27.5,277.8,124.3,30.4,52.9,41.2,113.1,30.8,173.4-2.1,12-5.4,23.9-9.1,35.5,59.8,66.4,81.3,160.3,55.9,246.5-26.5,90.2-102,161.3-194.5,179.7-28.9,89.4-105.6,157.4-198.3,174.4-11,2-23.5,3.8-34.4,4.4ZM482.1,677.2v-291.5c0-6.1,6.5-16.7,11.2-20.8l210.1-121.8,5.1-3.7c-49.4-40.4-115.8-54.1-177.3-35.8s-132.6,93.3-136.9,174.1v247c0,0,1.4,2.9,1.4,2.9l86.6,49.5ZM528.4,422.5v99.6l249-143.3c8.4-4.6,18.1-6.2,27.3-3l215.2,123.9c1.6.6,1.5-2.7,1.7-3.8,14.1-77.2-29.8-159.6-97.3-196.5-62.7-34.3-129.3-30-190.9,3.5-67,36.4-131.4,77.8-198.3,114.4-1.9,1.5-6.1,2.8-6.7,5.3ZM326.9,624.8v-244.3c-63.4,23.1-110.5,79.6-122.1,146.2s20.5,154,85.7,195.3l213.9,123.6,88-50.8-249.9-143.9c-8.8-5.9-14.6-15.5-15.6-26ZM952.3,900.3c62.6-22.8,110.1-79,122-144.7,13.9-76.7-19.2-153.6-84-196l-215.5-124.4-2.1.3-83.7,48.3-2.1,2.3,249.9,143.9c8.3,5.3,15.6,16.8,15.6,26.8v243.5ZM639.3,512.6l-110.5,63.8-.4,126,1.3,2.7,110.1,63.1,110.5-63.8.4-126-1.3-2.7-110.1-63.1ZM797.1,603.6v291.5c0,6.2-6.9,17.2-11.6,21.2l-209.6,121.4-5.1,3.7c67.3,55.3,163.8,58.6,234.6,7.5,48.3-34.9,77.6-90.7,79.8-150.6v-242.3c-.6-2.9-8.3-6.6-11-8.3-25.3-15.3-51.5-29.2-77-44.1ZM750.8,758.8l-249,143.3c-10.7,6.1-23.1,6.1-33.9,0l-208.6-120.9c-1.6-.5-1.5,2.6-1.7,3.8-9.8,53.2,9.9,114.9,45.4,154.9,61.4,69.2,157.5,83.9,238.8,40.5,60.5-32.2,122.2-70,181.5-104.8,7.2-4.2,19.3-10,25.3-14.6s2.1-2.1,2.1-2.7v-99.6Z"/>
</svg>