<?xml version="1.0" encoding="UTF-8"?>
<svg id="_图层_1" data-name="图层_1" xmlns="http://www.w3.org/2000/svg" version="1.1" viewBox="0 0 460.4 120.1">
  <!-- Generator: Adobe Illustrator 30.0.0, SVG Export Plug-In . SVG Version: 2.1.1 Build 123)  -->
  <defs>
    <style>
      .st0 {
        fill: #040000;
      }
    </style>
  </defs>
  <path class="st0" d="M34.7,60.2c0-10.8,7.8-18.7,18.6-18.7s9.2,2.1,12.1,5.3v-20.8h7.3v34.2c0,10.5-8.2,18.6-19,18.6s-19-8.4-19-18.6ZM65.4,60.1c0-6.5-5.1-11.8-11.8-11.8s-11.8,5.4-11.8,11.8,5.2,11.9,11.8,11.9,11.8-5.4,11.8-11.9Z"/>
  <path class="st0" d="M80.6,59.9c0-10.2,7.3-18.6,18-18.6s17.4,7.8,17.4,17.7v2.9h-28.5c.8,6.1,5.4,10.4,11.8,10.4s8.3-1.9,10.4-5.8l5.5,2.8c-3.1,6.1-8.9,9.4-15.8,9.4-10.8,0-18.9-7.8-18.9-18.8ZM108.9,57.2c-.3-5.7-4.4-9.5-10.3-9.5s-10,4.2-10.7,9.5h21Z"/>
  <path class="st0" d="M122.4,59.9c0-10.2,7.3-18.6,18-18.6s17.4,7.8,17.4,17.7v2.9h-28.5c.8,6.1,5.4,10.4,11.8,10.4s8.3-1.9,10.4-5.8l5.5,2.8c-3.1,6.1-8.9,9.4-15.8,9.4-10.8,0-18.9-7.8-18.9-18.8ZM150.7,57.2c-.3-5.7-4.4-9.5-10.3-9.5s-10,4.2-10.7,9.5h21Z"/>
  <path class="st0" d="M166.4,94.2v-34.2c0-10.6,8.2-18.6,19-18.6s18.9,8.4,18.9,18.6-7.8,18.7-18.6,18.7-9.2-2.1-12.1-5.3v20.8h-7.2ZM197.1,60.1c0-6.5-5.1-11.8-11.7-11.8s-11.8,5.3-11.8,11.8,5.1,11.9,11.8,11.9,11.7-5.4,11.7-11.9Z"/>
  <path class="st0" d="M221.1,25.9v51.9h-7.2V25.9h7.2Z"/>
  <path class="st0" d="M260,59.4v-17.1h7.2v18c0,10.3-6.2,18.5-17.4,18.5s-17.3-8.2-17.3-18.5v-17.9h7.2v17.2c0,6.5,3.6,12.3,10.1,12.3s10.2-5.7,10.2-12.4Z"/>
  <path class="st0" d="M338,59.1v18.7h-7.2v-17.6c0-6.5-3.2-12.1-9.9-12.1s-9.7,5.4-9.7,12v17.7h-7.2v-17.7c0-6.5-3.3-12-9.9-12s-9.7,5.7-9.7,12.1v17.6h-7.2v-18.7c0-10,5.7-17.9,16.3-17.9s12.3,3.6,14.1,9.2c2-5.5,7-9.2,13.7-9.2,10.8,0,16.6,8,16.6,17.9Z"/>
  <path class="st0" d="M346,59.9c0-10.2,7.3-18.6,18-18.6s17.4,7.8,17.4,17.7v2.9h-28.5c.8,6.1,5.4,10.4,11.8,10.4s8.3-1.9,10.4-5.8l5.5,2.8c-3.1,6.1-8.9,9.4-15.8,9.4-10.8,0-18.9-7.8-18.9-18.8ZM374.3,57.2c-.3-5.7-4.4-9.5-10.3-9.5s-10,4.2-10.7,9.5h21Z"/>
  <path class="st0" d="M397.3,60.7v17.2h-7.2v-17.9c0-10.4,6.2-18.5,17.7-18.5s17.9,8.1,17.9,18.5v18h-7.2v-17.1c0-6.7-3.6-12.4-10.8-12.4s-10.5,5.7-10.5,12.4Z"/>
</svg>