<?xml version="1.0" encoding="UTF-8"?>
<svg id="_图层_1" xmlns="http://www.w3.org/2000/svg" version="1.1" viewBox="0 0 595.3 182.1">
  <!-- Generator: Adobe Illustrator 30.0.0, SVG Export Plug-In . SVG Version: 2.1.1 Build 123)  -->
  <!-- White full logo (icon + text) — for use on dark backgrounds (e.g. footer) -->
  <defs>
    <style>
      .st0 {
        fill: #fff;
      }
    </style>
  </defs>
  <!-- Icon symbol paths (white) -->
  <path class="st0" d="M114.3,61h0s-28.9-16.3-28.9-16.3c-1.6-.9-3.7-.3-4.6,1.3-.9,1.7-.3,3.7,1.3,4.7l28.9,16.3c11.8,6.7,19.2,19.3,19.2,33s-7.4,26.3-19.2,33l-29.3,16.5c-1.6.9-2.2,3-1.3,4.7.6,1.1,1.8,1.8,3,1.8s1.1-.1,1.7-.4l29.3-16.5c14-7.9,22.7-22.8,22.7-39s-8.7-31.1-22.7-39Z"/>
  <path class="st0" d="M87.2,100c0-6.4-3.5-12.4-9-15.5l-4.5-2.5c-.1,0-.3-.2-.4-.3l-16.2-9.1c-6.2-3.5-10-10-10-17.1s3.8-13.7,10-17.1l16.4-9.2c1.6-.9,2.2-3,1.3-4.7-.9-1.7-3-2.2-4.6-1.3l-16.4,9.2c-8.3,4.7-13.5,13.5-13.5,23.1s5.2,18.4,13.5,23.1l10.6,6c.1,0,.3.2.4.3l10.1,5.7c3.4,1.9,5.6,5.6,5.6,9.5s-2.1,7.6-5.6,9.5l-10.2,5.8c-1.6.9-2.2,3-1.3,4.7.6,1.1,1.8,1.8,3,1.8s1.1-.1,1.7-.4l10.2-5.8c5.6-3.1,9-9.1,9-15.5Z"/>
  <path class="st0" d="M103.4,100c0-9.6-5.2-18.4-13.5-23.1l-10.6-6c-.1,0-.3-.2-.4-.3l-10.1-5.7c-3.4-1.9-5.6-5.6-5.6-9.5s2.1-7.6,5.6-9.5l10.2-5.8c1.6-.9,2.2-3,1.3-4.7-.9-1.7-3-2.2-4.6-1.3l-10.2,5.8c-5.6,3.1-9,9.1-9,15.5s3.5,12.4,9,15.5l4.5,2.5c.1,0,.3.2.4.3l16.2,9.1c6.2,3.5,10,10,10,17.1s-3.8,13.7-10,17.1l-16.4,9.2c-1.6.9-2.2,3-1.3,4.7.6,1.1,1.8,1.8,3,1.8s1.1-.1,1.7-.4l16.4-9.2c8.3-4.7,13.5-13.5,13.5-23.1Z"/>
  <path class="st0" d="M120.3,100h0c0-12.9-6.9-24.8-18.1-31.1l-22.6-12.7c-1.6-.9-3.7-.3-4.6,1.3-.9,1.7-.3,3.7,1.3,4.7l22.6,12.7c9,5.1,14.6,14.7,14.6,25.1s-5.6,20-14.6,25.1l-22.9,12.9c-1.6.9-2.2,3-1.3,4.7.6,1.1,1.8,1.8,3,1.8s1.1-.1,1.7-.4l22.9-12.9c11.2-6.3,18.1-18.2,18.1-31.1Z"/>
  <!-- Text paths (white) -->
  <path class="st0" d="M175.6,89.4c0-10.8,7.8-18.7,18.6-18.7s9.2,2.1,12.1,5.3v-20.8h7.3v34.2c0,10.5-8.2,18.6-19,18.6s-19-8.4-19-18.6ZM206.4,89.3c0-6.5-5.1-11.8-11.8-11.8s-11.8,5.4-11.8,11.8,5.2,11.9,11.8,11.9,11.8-5.4,11.8-11.9Z"/>
  <path class="st0" d="M221.6,89.1c0-10.2,7.3-18.6,18-18.6s17.4,7.8,17.4,17.7v2.9h-28.5c.8,6.1,5.4,10.4,11.8,10.4s8.3-1.9,10.4-5.8l5.5,2.8c-3.1,6.1-8.9,9.4-15.8,9.4-10.8,0-18.9-7.8-18.9-18.8ZM249.9,86.5c-.3-5.7-4.4-9.5-10.3-9.5s-10,4.2-10.7,9.5h21Z"/>
  <path class="st0" d="M263.4,89.1c0-10.2,7.3-18.6,18-18.6s17.4,7.8,17.4,17.7v2.9h-28.5c.8,6.1,5.4,10.4,11.8,10.4s8.3-1.9,10.4-5.8l5.5,2.8c-3.1,6.1-8.9,9.4-15.8,9.4-10.8,0-18.9-7.8-18.9-18.8ZM291.7,86.5c-.3-5.7-4.4-9.5-10.3-9.5s-10,4.2-10.7,9.5h21Z"/>
  <path class="st0" d="M307.4,123.4v-34.2c0-10.6,8.2-18.6,19-18.6s18.9,8.4,18.9,18.6-7.8,18.7-18.6,18.7-9.2-2.1-12.1-5.3v20.8h-7.2ZM338.1,89.3c0-6.5-5.1-11.8-11.7-11.8s-11.8,5.3-11.8,11.8,5.1,11.9,11.8,11.9,11.7-5.4,11.7-11.9Z"/>
  <path class="st0" d="M362,55.2v51.9h-7.2v-51.9h7.2Z"/>
  <path class="st0" d="M401,88.6v-17.1h7.2v18c0,10.3-6.2,18.5-17.4,18.5s-17.3-8.2-17.3-18.5v-17.9h7.2v17.2c0,6.5,3.6,12.3,10.1,12.3s10.2-5.7,10.2-12.4Z"/>
  <path class="st0" d="M478.9,88.4v18.7h-7.2v-17.6c0-6.5-3.2-12.1-9.9-12.1s-9.7,5.4-9.7,12v17.7h-7.2v-17.7c0-6.5-3.3-12-9.9-12s-9.7,5.7-9.7,12.1v17.6h-7.2v-18.7c0-10,5.7-17.9,16.3-17.9s12.3,3.6,14.1,9.2c2-5.5,7-9.2,13.7-9.2,10.8,0,16.6,8,16.6,17.9Z"/>
  <path class="st0" d="M487,89.1c0-10.2,7.3-18.6,18-18.6s17.4,7.8,17.4,17.7v2.9h-28.5c.8,6.1,5.4,10.4,11.8,10.4s8.3-1.9,10.4-5.8l5.5,2.8c-3.1,6.1-8.9,9.4-15.8,9.4-10.8,0-18.9-7.8-18.9-18.8ZM515.3,86.5c-.3-5.7-4.4-9.5-10.3-9.5s-10,4.2-10.7,9.5h21Z"/>
  <path class="st0" d="M538.2,89.9v17.2h-7.2v-17.9c0-10.4,6.2-18.5,17.7-18.5s17.9,8.1,17.9,18.5v18h-7.2v-17.1c0-6.7-3.6-12.4-10.8-12.4s-10.5,5.7-10.5,12.4Z"/>
</svg>
