<?xml version="1.0" encoding="UTF-8"?>
<svg id="Layer_1" xmlns="http://www.w3.org/2000/svg" version="1.1" viewBox="0 0 197.6 223.8">
  <!-- Generator: Adobe Illustrator 30.0.0, SVG Export Plug-In . SVG Version: 2.1.1 Build 123)  -->
  <defs>
    <style>
      .st0 {
        fill: #5c8a3c;
      }

      .st1 {
        fill: #6bb930;
      }
    </style>
  </defs>
  <path class="st1" d="M131.6,33.8s-2.3.7-6.1,1.8c-.7-2.1-1.6-4.6-3-7.2-4.3-8.2-10.7-12.7-18.2-12.7h0c-.5,0-1,0-1.6.2-.2-.3-.5-.5-.7-.8-3.3-3.6-7.6-5.3-12.7-5.1-9.9.3-19.7,7.4-27.6,20.1-5.6,8.9-9.9,20.1-11,28.8-11.3,3.5-19.2,5.9-19.4,6.1-5.8,1.8-5.9,2-6.6,7.4-1,4.1-15.9,120-15.9,120l124.3,21.5V33.5c-.7.2-1.2.2-1.5.3ZM102.8,42.7c-6.6,2-13.8,4.3-20.9,6.4,2-7.7,5.9-15.4,10.5-20.5,1.8-1.8,4.3-3.9,7.1-5.3,2.8,5.9,3.5,14,3.3,19.4ZM89.5,16.6c2.3,0,4.3.5,5.9,1.5-2.6,1.3-5.3,3.5-7.7,5.9-6.2,6.7-11,17.3-13,27.3-5.9,1.8-11.8,3.6-17.3,5.3,3.5-15.6,16.8-39.4,32.1-39.9ZM70.3,107c.7,10.5,28.4,12.8,30.1,37.6,1.2,19.6-10.4,32.9-27,33.9-20.1,1.3-31.1-10.5-31.1-10.5l4.3-18.1s11,8.4,19.9,7.7c5.8-.3,7.9-5.1,7.7-8.4-.8-13.8-23.5-13-25-35.7-1.3-18.9,11.2-38.1,38.8-39.9,10.7-.7,16.1,2,16.1,2l-6.2,23.7s-7.1-3.3-15.4-2.6c-12.2.8-12.3,8.5-12.2,10.4ZM109.4,40.7c0-4.9-.7-12-3-17.9,7.6,1.5,11.2,9.9,12.8,15-3,.8-6.2,1.8-9.9,3Z"/>
  <path class="st0" d="M137.2,213.2l51.6-12.8s-22.2-150.1-22.4-151c-.2-1-1-1.6-1.8-1.6s-15.3-.3-15.3-.3c0,0-8.9-8.5-12.2-11.8v177.7Z"/>
</svg>