<?xml version="1.0" encoding="UTF-8"?>
<svg id="_图层_1" xmlns="http://www.w3.org/2000/svg" xmlns:xlink="http://www.w3.org/1999/xlink" version="1.1" viewBox="0 0 595.3 182.1">
  <!-- Generator: Adobe Illustrator 30.0.0, SVG Export Plug-In . SVG Version: 2.1.1 Build 123)  -->
  <defs>
    <style>
      .st0 {
        fill: none;
      }

      .st1 {
        mask: url(#mask);
      }

      .st2 {
        fill: #040000;
      }

      .st3 {
        mask: url(#mask-2);
      }

      .st4 {
        mask: url(#mask-3);
      }

      .st5 {
        mask: url(#mask-1);
      }

      .st6 {
        clip-path: url(#clippath-11);
      }

      .st7 {
        clip-path: url(#clippath-10);
      }

      .st8 {
        clip-path: url(#clippath-15);
      }

      .st9 {
        clip-path: url(#clippath-13);
      }

      .st10 {
        clip-path: url(#clippath-14);
      }

      .st11 {
        clip-path: url(#clippath-12);
      }

      .st12 {
        clip-path: url(#clippath-1);
      }

      .st13 {
        clip-path: url(#clippath-3);
      }

      .st14 {
        clip-path: url(#clippath-4);
      }

      .st15 {
        clip-path: url(#clippath-2);
      }

      .st16 {
        clip-path: url(#clippath-7);
      }

      .st17 {
        clip-path: url(#clippath-6);
      }

      .st18 {
        clip-path: url(#clippath-9);
      }

      .st19 {
        clip-path: url(#clippath-8);
      }

      .st20 {
        clip-path: url(#clippath-5);
      }

      .st21 {
        clip-path: url(#clippath);
      }
    </style>
    <clipPath id="clippath">
      <path class="st0" d="M114.3,61h0s-28.9-16.3-28.9-16.3c-1.6-.9-3.7-.3-4.6,1.3-.9,1.7-.3,3.7,1.3,4.7l28.9,16.3c11.8,6.7,19.2,19.3,19.2,33s-7.4,26.3-19.2,33l-29.3,16.5c-1.6.9-2.2,3-1.3,4.7.6,1.1,1.8,1.8,3,1.8s1.1-.1,1.7-.4l29.3-16.5c14-7.9,22.7-22.8,22.7-39s-8.7-31.1-22.7-39Z"/>
    </clipPath>
    <clipPath id="clippath-1">
      <rect class="st0" x="76.7" y="41.1" width="63.5" height="118.1"/>
    </clipPath>
    <clipPath id="clippath-2">
      <rect class="st0" x="76.7" y="41.1" width="63.5" height="118.1"/>
    </clipPath>
    <clipPath id="clippath-3">
      <rect class="st0" x="76.7" y="41.1" width="63.5" height="118.1"/>
    </clipPath>
    <mask id="mask" x="76.3" y="40.6" width="64.3" height="118.6" maskUnits="userSpaceOnUse">
      <g class="st13">
        <image width="134" height="247" transform="translate(76.3 40.6) scale(.5)" xlink:href="对外logocis001-1.png"/>
      </g>
    </mask>
    <clipPath id="clippath-4">
      <path class="st0" d="M87.2,100c0-6.4-3.5-12.4-9-15.5l-4.5-2.5c-.1,0-.3-.2-.4-.3l-16.2-9.1c-6.2-3.5-10-10-10-17.1s3.8-13.7,10-17.1l16.4-9.2c1.6-.9,2.2-3,1.3-4.7-.9-1.7-3-2.2-4.6-1.3l-16.4,9.2c-8.3,4.7-13.5,13.5-13.5,23.1s5.2,18.4,13.5,23.1l10.6,6c.1,0,.3.2.4.3l10.1,5.7c3.4,1.9,5.6,5.6,5.6,9.5s-2.1,7.6-5.6,9.5l-10.2,5.8c-1.6.9-2.2,3-1.3,4.7.6,1.1,1.8,1.8,3,1.8s1.1-.1,1.7-.4l10.2-5.8c5.6-3.1,9-9.1,9-15.5Z"/>
    </clipPath>
    <clipPath id="clippath-5">
      <rect class="st0" x="37" y="19.5" width="53.3" height="105.5"/>
    </clipPath>
    <clipPath id="clippath-6">
      <rect class="st0" x="37" y="19.5" width="53.3" height="105.5"/>
    </clipPath>
    <clipPath id="clippath-7">
      <rect class="st0" x="37" y="19.5" width="53.3" height="105.5"/>
    </clipPath>
    <mask id="mask-1" x="37" y="19" width="53.8" height="106.1" maskUnits="userSpaceOnUse">
      <g class="st16">
        <image width="112" height="221" transform="translate(37 19) scale(.5)" xlink:href="对外logocis001-3.png"/>
      </g>
    </mask>
    <clipPath id="clippath-8">
      <path class="st0" d="M103.4,100c0-9.6-5.2-18.4-13.5-23.1l-10.6-6c-.1,0-.3-.2-.4-.3l-10.1-5.7c-3.4-1.9-5.6-5.6-5.6-9.5s2.1-7.6,5.6-9.5l10.2-5.8c1.6-.9,2.2-3,1.3-4.7-.9-1.7-3-2.2-4.6-1.3l-10.2,5.8c-5.6,3.1-9,9.1-9,15.5s3.5,12.4,9,15.5l4.5,2.5c.1,0,.3.2.4.3l16.2,9.1c6.2,3.5,10,10,10,17.1s-3.8,13.7-10,17.1l-16.4,9.2c-1.6.9-2.2,3-1.3,4.7.6,1.1,1.8,1.8,3,1.8s1.1-.1,1.7-.4l16.4-9.2c8.3-4.7,13.5-13.5,13.5-23.1Z"/>
    </clipPath>
    <clipPath id="clippath-9">
      <rect class="st0" x="53.3" y="30.5" width="53.3" height="105.5"/>
    </clipPath>
    <clipPath id="clippath-10">
      <rect class="st0" x="53.3" y="30.5" width="53.3" height="105.5"/>
    </clipPath>
    <clipPath id="clippath-11">
      <rect class="st0" x="53.3" y="30.5" width="53.3" height="105.5"/>
    </clipPath>
    <mask id="mask-2" x="53.3" y="30.1" width="53.8" height="106.1" maskUnits="userSpaceOnUse">
      <g class="st6">
        <image width="112" height="221" transform="translate(53.3 30.1) scale(.5)" xlink:href="对外logocis001-5.png"/>
      </g>
    </mask>
    <clipPath id="clippath-12">
      <path class="st0" d="M120.3,100h0c0-12.9-6.9-24.8-18.1-31.1l-22.6-12.7c-1.6-.9-3.7-.3-4.6,1.3-.9,1.7-.3,3.7,1.3,4.7l22.6,12.7c9,5.1,14.6,14.7,14.6,25.1s-5.6,20-14.6,25.1l-22.9,12.9c-1.6.9-2.2,3-1.3,4.7.6,1.1,1.8,1.8,3,1.8s1.1-.1,1.7-.4l22.9-12.9c11.2-6.3,18.1-18.2,18.1-31.1Z"/>
    </clipPath>
    <clipPath id="clippath-13">
      <rect class="st0" x="71" y="52.5" width="52.5" height="95.1"/>
    </clipPath>
    <clipPath id="clippath-14">
      <rect class="st0" x="71" y="52.5" width="52.5" height="95.1"/>
    </clipPath>
    <clipPath id="clippath-15">
      <rect class="st0" x="71" y="52.5" width="52.5" height="95.1"/>
    </clipPath>
    <mask id="mask-3" x="70.6" y="52.2" width="53.3" height="95.5" maskUnits="userSpaceOnUse">
      <g class="st8">
        <image width="111" height="199" transform="translate(70.6 52.2) scale(.5)" xlink:href="对外logocis001-7.png"/>
      </g>
    </mask>
  </defs>
  <g>
    <path class="st2" d="M175.6,89.4c0-10.8,7.8-18.7,18.6-18.7s9.2,2.1,12.1,5.3v-20.8h7.3v34.2c0,10.5-8.2,18.6-19,18.6s-19-8.4-19-18.6ZM206.4,89.3c0-6.5-5.1-11.8-11.8-11.8s-11.8,5.4-11.8,11.8,5.2,11.9,11.8,11.9,11.8-5.4,11.8-11.9Z"/>
    <path class="st2" d="M221.6,89.1c0-10.2,7.3-18.6,18-18.6s17.4,7.8,17.4,17.7v2.9h-28.5c.8,6.1,5.4,10.4,11.8,10.4s8.3-1.9,10.4-5.8l5.5,2.8c-3.1,6.1-8.9,9.4-15.8,9.4-10.8,0-18.9-7.8-18.9-18.8ZM249.9,86.5c-.3-5.7-4.4-9.5-10.3-9.5s-10,4.2-10.7,9.5h21Z"/>
    <path class="st2" d="M263.4,89.1c0-10.2,7.3-18.6,18-18.6s17.4,7.8,17.4,17.7v2.9h-28.5c.8,6.1,5.4,10.4,11.8,10.4s8.3-1.9,10.4-5.8l5.5,2.8c-3.1,6.1-8.9,9.4-15.8,9.4-10.8,0-18.9-7.8-18.9-18.8ZM291.7,86.5c-.3-5.7-4.4-9.5-10.3-9.5s-10,4.2-10.7,9.5h21Z"/>
    <path class="st2" d="M307.4,123.4v-34.2c0-10.6,8.2-18.6,19-18.6s18.9,8.4,18.9,18.6-7.8,18.7-18.6,18.7-9.2-2.1-12.1-5.3v20.8h-7.2ZM338.1,89.3c0-6.5-5.1-11.8-11.7-11.8s-11.8,5.3-11.8,11.8,5.1,11.9,11.8,11.9,11.7-5.4,11.7-11.9Z"/>
    <path class="st2" d="M362,55.2v51.9h-7.2v-51.9h7.2Z"/>
    <path class="st2" d="M401,88.6v-17.1h7.2v18c0,10.3-6.2,18.5-17.4,18.5s-17.3-8.2-17.3-18.5v-17.9h7.2v17.2c0,6.5,3.6,12.3,10.1,12.3s10.2-5.7,10.2-12.4Z"/>
    <path class="st2" d="M478.9,88.4v18.7h-7.2v-17.6c0-6.5-3.2-12.1-9.9-12.1s-9.7,5.4-9.7,12v17.7h-7.2v-17.7c0-6.5-3.3-12-9.9-12s-9.7,5.7-9.7,12.1v17.6h-7.2v-18.7c0-10,5.7-17.9,16.3-17.9s12.3,3.6,14.1,9.2c2-5.5,7-9.2,13.7-9.2,10.8,0,16.6,8,16.6,17.9Z"/>
    <path class="st2" d="M487,89.1c0-10.2,7.3-18.6,18-18.6s17.4,7.8,17.4,17.7v2.9h-28.5c.8,6.1,5.4,10.4,11.8,10.4s8.3-1.9,10.4-5.8l5.5,2.8c-3.1,6.1-8.9,9.4-15.8,9.4-10.8,0-18.9-7.8-18.9-18.8ZM515.3,86.5c-.3-5.7-4.4-9.5-10.3-9.5s-10,4.2-10.7,9.5h21Z"/>
    <path class="st2" d="M538.2,89.9v17.2h-7.2v-17.9c0-10.4,6.2-18.5,17.7-18.5s17.9,8.1,17.9,18.5v18h-7.2v-17.1c0-6.7-3.6-12.4-10.8-12.4s-10.5,5.7-10.5,12.4Z"/>
  </g>
  <g>
    <g class="st21">
      <g class="st12">
        <g class="st15">
          <g class="st1">
            <image width="134" height="247" transform="translate(76.3 40.6) scale(.5)" xlink:href="对外logocis001-2.png"/>
          </g>
        </g>
      </g>
    </g>
    <g class="st14">
      <g class="st20">
        <g class="st17">
          <g class="st5">
            <image width="112" height="221" transform="translate(37 19) scale(.5)" xlink:href="对外logocis001-4.png"/>
          </g>
        </g>
      </g>
    </g>
    <g class="st19">
      <g class="st18">
        <g class="st7">
          <g class="st3">
            <image width="112" height="221" transform="translate(53.3 30.1) scale(.5)" xlink:href="对外logocis001-6.png"/>
          </g>
        </g>
      </g>
    </g>
    <g class="st11">
      <g class="st9">
        <g class="st10">
          <g class="st4">
            <image width="111" height="199" transform="translate(70.6 52.2) scale(.5)" xlink:href="对外logocis001-8.png"/>
          </g>
        </g>
      </g>
    </g>
  </g>
</svg>