<?xml version="1.0" encoding="UTF-8"?>
<svg id="_图层_1" data-name="图层_1" xmlns="http://www.w3.org/2000/svg" version="1.1" viewBox="0 0 469.2 102.4">
  <!-- Generator: Adobe Illustrator 30.0.0, SVG Export Plug-In . SVG Version: 2.1.1 Build 123)  -->
  <g id="_x36_NRybt">
    <g>
      <path d="M282.8,51.2c0,28.3-22.9,51.2-51.2,51.2s-51.2-22.9-51.2-51.2S203.3,0,231.6,0s51.2,22.9,51.2,51.2ZM269,50.7c0-20.5-16.6-37.2-37.2-37.2s-37.2,16.6-37.2,37.2,16.6,37.2,37.2,37.2,37.2-16.6,37.2-37.2Z"/>
      <g>
        <path d="M367,82.2h-11c-1.7-10.6,2.4-22.4-12.5-22l-3.6,22h-11s3-20.9,3-20.9l-8,2,1.1-11.9,8.4-2c3.8-14.1-1.8-25.5,16.9-27.1s10.6-.8,11.4,1.7l5.1,58.4ZM352,32.2l-4.5,1-2.5,16,8,1-1-18Z"/>
        <path d="M383,22.2v18.5c0,.3-.9,1.1-1,2l2,.5,10-20.5,12-.5-12,25.5c8.9,9.8,13.4,21,12,34.5h-11c-.3-9.4-1.9-23.9-13-26v26h-11V22.2h12Z"/>
        <polygon points="438 22.2 438 31.2 422 31.2 422 45.2 432 45.2 432 53.6 422 54.2 422 72.2 438 72.2 438 82.2 410 82.2 410 22.2 438 22.2"/>
        <path d="M467,35.2c-2.7-2.1-9.7-6.3-12.5-3-4.3,5,6.7,14.6,9.3,18.7,12.7,19.2,1.7,36.1-20.9,31.9l-.9-11.6c4.7,3.9,14.7,2.2,15.1-4.5.8-12.6-22.3-23.1-15.5-38.4s11.2-8.2,18.4-6.7,7.1,6.3,6.9,13.6Z"/>
        <polygon points="311 22.2 311 72.2 325 72.2 324 82.2 299 82.2 299 22.2 311 22.2"/>
      </g>
      <g>
        <path d="M0,22.2h14c.5.4-1,1.3-1,1.5v48.5h16l-1,10H0V22.2Z"/>
        <path d="M105,39.2v-17h13v60h-12c.4-14.3-4.3-29.4-14-40v40h-12V22.2c11.6-1,18.8,8.9,25,17Z"/>
        <path d="M72,82.2h-10.9c0-.1-2.2-18.9-2.2-18.9-2.6-.3-10.4-5.4-11.7-1.4l-3.3,20.2h-10.9c0,.1,3-20.9,3-20.9l-8,2,1-12,8.5-2c3.7-13.4-1-25.6,16.9-27.1s11.1-.5,12.1,1l5.4,59.1ZM56,32.2c-7.8-.1-4.8,11.7-7,17,3.1-.9,8.8,4,8.8-.2s-1.8-11.5-1.8-16.8Z"/>
        <path d="M126,81.2l1-59c27.7-3.8,45.8,18,34.8,44.3-6.1,14.6-21.9,16.1-35.8,14.7ZM138,33.2v37.5l2.1,1.1c17.3-5.1,17.8-37.3-2.1-38.6Z"/>
      </g>
    </g>
  </g>
</svg>